<svg xmlns="http://www.w3.org/2000/svg" viewBox="0 0 217.63 217.38"><defs><style>.cls-1,.cls-4{fill:none;}.cls-1{stroke:#231f20;stroke-miterlimit:10;}.cls-2{font-size:2.13px;font-family:MyriadPro-Regular, Myriad Pro;}.cls-2,.cls-5{fill:#231f20;}.cls-3{letter-spacing:-0.01em;}</style></defs><title>Asset 1</title><g id="Layer_2" data-name="Layer 2"><g id="Layer_1-2" data-name="Layer 1"><circle class="cls-1" cx="202.12" cy="34.32" r="6.15"/><circle class="cls-1" cx="205.88" cy="202.31" r="6.15"/><circle class="cls-1" cx="108.1" cy="18.43" r="6.15"/><circle class="cls-1" cx="15.11" cy="34.46" r="6.15"/><circle class="cls-1" cx="10.77" cy="203.01" r="6.15"/><rect class="cls-1" x="41.54" y="107.88" width="18.33" height="20.33" transform="translate(-67.33 168.75) rotate(-90)"/><rect class="cls-1" x="21.91" y="88.54" width="18.33" height="20.33" transform="translate(-67.63 129.79) rotate(-90)"/><rect class="cls-1" x="41.54" y="69.38" width="18.33" height="20.33" transform="translate(-28.83 130.25) rotate(-90)"/><rect class="cls-1" x="60.88" y="88.54" width="18.33" height="20.33" transform="translate(-28.67 168.75) rotate(-90)"/><rect class="cls-1" x="137.75" y="92.63" width="18.33" height="20.33" transform="translate(44.12 249.71) rotate(-90)"/><rect class="cls-1" x="174.5" y="82.5" width="18.33" height="20.33" transform="translate(91 276.33) rotate(-90)"/><rect class="cls-1" x="147.75" y="127.1" width="18.33" height="20.33" transform="translate(19.65 294.19) rotate(-90)"/><rect class="cls-1" x="184.5" y="116.98" width="18.33" height="20.33" transform="translate(66.52 320.81) rotate(-90)"/><rect class="cls-1" x="101.13" y="40.17" width="13.96" height="13.96" transform="translate(60.96 155.25) rotate(-90)"/><rect class="cls-1" x="81.21" y="193.67" width="13.96" height="13.96" transform="translate(-112.46 288.83) rotate(-90)"/><rect class="cls-1" x="121.21" y="193.67" width="13.96" height="13.96" transform="translate(-72.46 328.83) rotate(-90)"/><polygon class="cls-1" points="0.5 211 0.5 10 58.63 10 58.63 0.5 157.08 0.5 157.08 9.38 214.75 9.38 214.75 27.13 217.13 27.13 217.13 120.5 209.17 120.5 209.17 187.25 215.25 187.25 215.25 216.88 117.33 216.88 117.33 209.19 99.08 209.19 99.08 216.88 0.5 216.88 0.5 211"/><polyline class="cls-1" points="99.08 216.88 99.08 209.19 117.33 209.19 117.33 216.88"/><circle class="cls-1" cx="108.23" cy="92.07" r="2.52"/><circle class="cls-1" cx="5.21" cy="18.68" r="1.39"/><circle class="cls-1" cx="9.9" cy="23.74" r="1.39"/><circle class="cls-1" cx="22.65" cy="23.74" r="1.39"/><circle class="cls-1" cx="26.86" cy="18.68" r="1.39"/><circle class="cls-1" cx="189.63" cy="18.68" r="1.39"/><circle class="cls-1" cx="194.32" cy="23.74" r="1.39"/><circle class="cls-1" cx="207.07" cy="23.74" r="1.39"/><circle class="cls-1" cx="211.28" cy="18.68" r="1.39"/><circle class="cls-1" cx="27.38" cy="206.87" r="3.98"/><circle class="cls-1" cx="192.12" cy="206.95" r="3.87"/><circle class="cls-1" cx="102.97" cy="121.15" r="1.39"/><circle class="cls-1" cx="112.69" cy="121.15" r="1.39"/><rect class="cls-1" x="99.73" y="69.34" width="14.5" height="144.63" transform="translate(-34.67 248.63) rotate(-90)"/><circle class="cls-1" cx="38.37" cy="138.37" r="1.38"/><circle class="cls-1" cx="38.37" cy="145.48" r="1.38"/><circle class="cls-1" cx="45.67" cy="138.37" r="1.38"/><circle class="cls-1" cx="45.67" cy="145.48" r="1.38"/><circle class="cls-1" cx="52.89" cy="138.37" r="1.38"/><circle class="cls-1" cx="52.89" cy="145.48" r="1.38"/><circle class="cls-1" cx="60.18" cy="138.37" r="1.38"/><circle class="cls-1" cx="60.18" cy="145.48" r="1.38"/><circle class="cls-1" cx="67.32" cy="138.37" r="1.38"/><circle class="cls-1" cx="67.32" cy="145.48" r="1.38"/><circle class="cls-1" cx="74.61" cy="138.37" r="1.38"/><circle class="cls-1" cx="74.61" cy="145.48" r="1.38"/><circle class="cls-1" cx="81.83" cy="138.37" r="1.38"/><circle class="cls-1" cx="81.83" cy="145.48" r="1.38"/><circle class="cls-1" cx="89.13" cy="138.37" r="1.38"/><circle class="cls-1" cx="89.13" cy="145.48" r="1.38"/><circle class="cls-1" cx="96.42" cy="138.37" r="1.38"/><circle class="cls-1" cx="96.42" cy="145.48" r="1.38"/><circle class="cls-1" cx="103.72" cy="138.37" r="1.38"/><circle class="cls-1" cx="103.72" cy="145.48" r="1.38"/><circle class="cls-1" cx="110.94" cy="138.37" r="1.38"/><circle class="cls-1" cx="110.94" cy="145.48" r="1.38"/><circle class="cls-1" cx="118.23" cy="138.37" r="1.38"/><circle class="cls-1" cx="118.23" cy="145.48" r="1.38"/><circle class="cls-1" cx="125.36" cy="138.37" r="1.38"/><circle class="cls-1" cx="125.36" cy="145.48" r="1.38"/><circle class="cls-1" cx="132.66" cy="138.37" r="1.38"/><circle class="cls-1" cx="132.66" cy="145.48" r="1.38"/><circle class="cls-1" cx="139.88" cy="138.37" r="1.38"/><circle class="cls-1" cx="139.88" cy="145.48" r="1.38"/><circle class="cls-1" cx="147.17" cy="138.37" r="1.38"/><circle class="cls-1" cx="147.17" cy="145.48" r="1.38"/><circle class="cls-1" cx="154.1" cy="138.37" r="1.38"/><circle class="cls-1" cx="154.1" cy="145.48" r="1.38"/><circle class="cls-1" cx="161.39" cy="138.37" r="1.38"/><circle class="cls-1" cx="161.39" cy="145.48" r="1.38"/><circle class="cls-1" cx="168.61" cy="138.37" r="1.38"/><circle class="cls-1" cx="168.61" cy="145.48" r="1.38"/><circle class="cls-1" cx="175.91" cy="138.37" r="1.38"/><circle class="cls-1" cx="175.91" cy="145.48" r="1.38"/><text class="cls-2" transform="translate(5.06 196.16)">(3.62mm, 4.89mm)</text><text class="cls-2" transform="translate(5.06 193.67)">d = 4.336mm</text><text class="cls-2" transform="translate(195.99 195.49)">(3.62mm, 4.89mm)</text><text class="cls-2" transform="translate(195.99 193)">d = 4.336mm</text><text class="cls-2" transform="translate(23.4 201.89)">(9.48mm, 3.53mm)</text><text class="cls-2" transform="translate(23.4 199.4)">d = 2.811mm</text><text class="cls-2" transform="translate(37 136.31)">(13.361mm, 27.693mm)</text><text class="cls-2" transform="translate(106.98 141.65)">(37.565mm, 26.538mm)</text><text class="cls-2" transform="translate(146.75 127.65)">(55.18mm, 28.083mm)</text><text class="cls-2" transform="translate(136.75 92.67)">(51.653mm, 40.246mm)</text><text class="cls-2" transform="translate(173.5 82.33)">(64.617mm, 43.818mm)</text><text class="cls-2" transform="translate(183.67 116.17)">(68.154mm, 31.654mm)</text><text class="cls-2" transform="translate(111.3 119.76)">(39.579mm, 33.768mm)</text><text class="cls-2" transform="translate(111.3 118.01)">d=.981mm</text><text class="cls-2" transform="translate(105.71 88.71)">(38.006mm, 44.03mm)</text><text class="cls-2" transform="translate(40.54 69.33)">(17.712mm, 48.448mm)</text><text class="cls-2" transform="translate(101.12 38.83)">(37.96mm, 59.877mm)</text><text class="cls-2" transform="translate(189.63 17.29)">(70.567mm, 69.027mm)</text><text class="cls-2" transform="translate(61.37 88.96)">(24.533mm, 41.687mm)</text><text class="cls-2" transform="translate(19.06 88.96)">(10.787mm, 41.687mm)</text><text class="cls-2" transform="translate(105.71 86.96)">d=1.781mm</text><text class="cls-2" transform="translate(101.96 11.21)">(37.96mm, 70.005mm)</text><text class="cls-2" transform="translate(101.96 9.46)">d=4.336mm</text><text class="cls-2" transform="translate(8.96 44.21)">(5.154mm, 64.35mm)</text><text class="cls-2" transform="translate(5.06 16.33)">(5.453mm, 69.027mm)</text><text class="cls-2" transform="translate(8.96 42.46)">d=4.336mm</text><text class="cls-2" transform="translate(195.99 44.21)">(71.127mm, 64.4mm)</text><text class="cls-2" transform="translate(195.99 42.46)">d=4.336mm</text><text class="cls-2" transform="translate(101.57 126.24)">(36.148mm, 33.768mm)</text><text class="cls-2" transform="translate(101.57 124.49)">d=.981mm</text><text class="cls-2" transform="translate(37 134.06)">2.54mm pp</text><text class="cls-2" transform="translate(189.35 215.52)">(67.60mm, 3.5mm)</text><text class="cls-2" transform="translate(189.35 213.03)">d = 2.811mm</text><text class="cls-2" transform="translate(81.21 192.56)">(30.93mm, 5.73mm)</text><text class="cls-2" transform="translate(81.21 190.07)"><tspan class="cls-3">l</tspan><tspan x="0.48" y="0">,w = 4.924mm</tspan></text><text class="cls-2" transform="translate(121.21 192.56)">(45.05mm, 5.73mm)</text><text class="cls-2" transform="translate(121.21 190.07)"><tspan class="cls-3">l</tspan><tspan x="0.48" y="0">,w = 4.924mm</tspan></text><line class="cls-4" x1="38.37" y1="137" x2="38.37" y2="139.75"/><line class="cls-4" x1="37" y1="138.37" x2="39.75" y2="138.37"/><text class="cls-2" transform="translate(61.37 127.21)">(17.712mm, 34.866mm)</text><rect class="cls-5" x="5.06" y="18.68" width="21.8" height="5.06"/><rect class="cls-5" x="189.63" y="18.68" width="21.8" height="5.06"/></g></g></svg>