<svg id="Layer_1" data-name="Layer 1" xmlns="http://www.w3.org/2000/svg" viewBox="0 0 994.19 537.83"><defs><style>.cls-1,.cls-9{fill:none;}.cls-1{stroke:#231f20;stroke-miterlimit:10;}.cls-2{font-size:12px;}.cls-10,.cls-2,.cls-7{fill:#231f20;}.cls-2,.cls-7{font-family:MyriadPro-Regular, Myriad Pro;}.cls-3{letter-spacing:-0.07em;}.cls-4{letter-spacing:-0.02em;}.cls-5{letter-spacing:-0.01em;}.cls-6{letter-spacing:-0.02em;}.cls-7{font-size:2.13px;}.cls-8{letter-spacing:-0.01em;}</style></defs><title>gbasp</title><circle class="cls-1" cx="642.52" cy="149.82" r="24.46"/><circle class="cls-1" cx="736.32" cy="34.32" r="6.15"/><circle class="cls-1" cx="740.08" cy="202.31" r="6.15"/><circle class="cls-1" cx="642.3" cy="18.43" r="6.15"/><circle class="cls-1" cx="549.31" cy="34.46" r="6.15"/><circle class="cls-1" cx="544.97" cy="203.01" r="6.15"/><rect class="cls-1" x="575.25" y="117.36" width="18.33" height="20.33" transform="translate(457.38 702.46) rotate(-90)"/><rect class="cls-1" x="555.62" y="98.03" width="18.33" height="20.33" transform="translate(457.08 663.49) rotate(-90)"/><rect class="cls-1" x="575.25" y="78.86" width="18.33" height="20.33" transform="translate(495.88 663.96) rotate(-90)"/><rect class="cls-1" x="594.58" y="98.03" width="18.33" height="20.33" transform="translate(496.04 702.46) rotate(-90)"/><rect class="cls-1" x="671.46" y="102.11" width="18.33" height="20.33" transform="translate(568.83 783.41) rotate(-90)"/><rect class="cls-1" x="708.21" y="91.99" width="18.33" height="20.33" transform="translate(615.71 810.04) rotate(-90)"/><rect class="cls-1" x="681.46" y="136.59" width="18.33" height="20.33" transform="translate(544.36 827.89) rotate(-90)"/><rect class="cls-1" x="718.21" y="126.47" width="18.33" height="20.33" transform="translate(591.23 854.52) rotate(-90)"/><rect class="cls-1" x="634.83" y="49.66" width="13.96" height="13.96" transform="translate(585.67 688.96) rotate(-90)"/><rect class="cls-1" x="614.91" y="203.16" width="13.96" height="13.96" transform="translate(412.25 822.54) rotate(-90)"/><rect class="cls-1" x="654.91" y="203.16" width="13.96" height="13.96" transform="translate(452.25 862.54) rotate(-90)"/><polygon class="cls-1" points="534.7 211 534.7 10 592.82 10 592.82 0.5 691.28 0.5 691.28 9.38 748.95 9.38 748.95 27.13 751.32 27.13 751.32 120.5 743.37 120.5 743.37 187.25 749.45 187.25 749.45 216.88 651.53 216.88 651.53 209.19 633.28 209.19 633.28 216.88 534.7 216.88 534.7 211"/><polyline class="cls-1" points="633.28 216.88 633.28 209.19 651.53 209.19 651.53 216.88"/><circle class="cls-1" cx="642.43" cy="92.07" r="2.52"/><circle class="cls-1" cx="594.07" cy="176.73" r="2.52"/><circle class="cls-1" cx="886.29" cy="151.55" r="24.46"/><circle class="cls-1" cx="886.38" cy="93.79" r="2.52"/><circle class="cls-1" cx="934.74" cy="178.46" r="2.52"/><circle class="cls-1" cx="539.41" cy="18.68" r="1.39"/><circle class="cls-1" cx="544.09" cy="23.74" r="1.39"/><circle class="cls-1" cx="556.85" cy="23.74" r="1.39"/><circle class="cls-1" cx="561.06" cy="18.68" r="1.39"/><circle class="cls-1" cx="723.83" cy="18.68" r="1.39"/><circle class="cls-1" cx="728.52" cy="23.74" r="1.39"/><circle class="cls-1" cx="741.27" cy="23.74" r="1.39"/><circle class="cls-1" cx="745.48" cy="18.68" r="1.39"/><circle class="cls-1" cx="561.58" cy="206.87" r="3.98"/><circle class="cls-1" cx="726.32" cy="206.95" r="3.87"/><circle class="cls-1" cx="792.07" cy="36.27" r="6.15"/><circle class="cls-1" cx="788.32" cy="204.26" r="6.15"/><circle class="cls-1" cx="886.09" cy="20.38" r="6.15"/><circle class="cls-1" cx="979.08" cy="36.41" r="6.15"/><circle class="cls-1" cx="983.42" cy="204.95" r="6.15"/><polygon class="cls-1" points="993.69 212.95 993.69 11.95 935.57 11.95 935.57 2.45 837.11 2.45 837.11 11.32 779.44 11.32 779.44 29.07 777.07 29.07 777.07 122.45 785.03 122.45 785.03 189.2 778.94 189.2 778.94 218.82 876.86 218.82 876.86 211.13 895.11 211.13 895.11 218.82 993.69 218.82 993.69 212.95"/><polyline class="cls-1" points="895.11 218.82 895.11 211.13 876.86 211.13 876.86 218.82"/><circle class="cls-1" cx="988.99" cy="20.62" r="1.39"/><circle class="cls-1" cx="984.3" cy="25.69" r="1.39"/><circle class="cls-1" cx="971.55" cy="25.69" r="1.39"/><circle class="cls-1" cx="967.34" cy="20.62" r="1.39"/><circle class="cls-1" cx="881.92" cy="122.88" r="1.39"/><circle class="cls-1" cx="637.16" cy="121.15" r="1.39"/><circle class="cls-1" cx="646.89" cy="121.15" r="1.39"/><circle class="cls-1" cx="202.12" cy="326.96" r="6.15"/><circle class="cls-1" cx="205.88" cy="494.95" r="6.15"/><circle class="cls-1" cx="108.1" cy="311.07" r="6.15"/><circle class="cls-1" cx="15.11" cy="327.1" r="6.15"/><circle class="cls-1" cx="10.77" cy="495.64" r="6.15"/><rect class="cls-1" x="41.05" y="410" width="18.33" height="20.33" transform="translate(-369.46 460.89) rotate(-90)"/><rect class="cls-1" x="21.42" y="390.67" width="18.33" height="20.33" transform="translate(-369.76 421.93) rotate(-90)"/><rect class="cls-1" x="41.05" y="371.5" width="18.33" height="20.33" transform="translate(-330.96 422.39) rotate(-90)"/><rect class="cls-1" x="60.38" y="390.67" width="18.33" height="20.33" transform="translate(-330.79 460.89) rotate(-90)"/><rect class="cls-1" x="137.26" y="394.75" width="18.33" height="20.33" transform="translate(-258 541.85) rotate(-90)"/><rect class="cls-1" x="174.01" y="384.63" width="18.33" height="20.33" transform="translate(-211.13 568.48) rotate(-90)"/><rect class="cls-1" x="147.26" y="429.23" width="18.33" height="20.33" transform="translate(-282.48 586.33) rotate(-90)"/><rect class="cls-1" x="184.01" y="419.1" width="18.33" height="20.33" transform="translate(-235.6 612.96) rotate(-90)"/><rect class="cls-1" x="100.63" y="342.29" width="13.96" height="13.96" transform="translate(-241.17 447.39) rotate(-90)"/><rect class="cls-1" x="80.72" y="495.79" width="13.96" height="13.96" transform="translate(-414.58 580.98) rotate(-90)"/><rect class="cls-1" x="120.72" y="495.79" width="13.96" height="13.96" transform="translate(-374.58 620.98) rotate(-90)"/><polygon class="cls-1" points="0.5 503.64 0.5 302.64 58.63 302.64 58.63 293.14 157.08 293.14 157.08 302.01 214.75 302.01 214.75 319.76 217.13 319.76 217.13 413.14 209.17 413.14 209.17 479.89 215.25 479.89 215.25 509.51 117.33 509.51 117.33 501.82 99.08 501.82 99.08 509.51 0.5 509.51 0.5 503.64"/><polyline class="cls-1" points="99.08 509.51 99.08 501.82 117.33 501.82 117.33 509.51"/><circle class="cls-1" cx="108.23" cy="384.7" r="2.52"/><circle class="cls-1" cx="5.21" cy="311.31" r="1.39"/><circle class="cls-1" cx="9.9" cy="316.38" r="1.39"/><circle class="cls-1" cx="22.65" cy="316.38" r="1.39"/><circle class="cls-1" cx="26.86" cy="311.31" r="1.39"/><circle class="cls-1" cx="189.63" cy="311.31" r="1.39"/><circle class="cls-1" cx="194.32" cy="316.38" r="1.39"/><circle class="cls-1" cx="207.07" cy="316.38" r="1.39"/><circle class="cls-1" cx="211.28" cy="311.31" r="1.39"/><circle class="cls-1" cx="27.38" cy="499.5" r="3.98"/><circle class="cls-1" cx="192.12" cy="499.58" r="3.87"/><circle class="cls-1" cx="102.97" cy="413.79" r="1.39"/><circle class="cls-1" cx="112.69" cy="413.79" r="1.39"/><circle class="cls-1" cx="891.65" cy="122.88" r="1.39"/><circle class="cls-1" cx="804.56" cy="20.62" r="1.39"/><circle class="cls-1" cx="799.88" cy="25.69" r="1.39"/><circle class="cls-1" cx="787.13" cy="25.69" r="1.39"/><circle class="cls-1" cx="782.91" cy="20.62" r="1.39"/><circle class="cls-1" cx="966.81" cy="208.81" r="3.98"/><circle class="cls-1" cx="802.08" cy="208.89" r="3.87"/><rect class="cls-1" x="876.81" y="80.55" width="14.5" height="144.63" transform="translate(731.69 1027.43) rotate(-90)"/><circle class="cls-1" cx="815.94" cy="140.1" r="1.38"/><circle class="cls-1" cx="815.94" cy="147.21" r="1.38"/><circle class="cls-1" cx="823.24" cy="140.1" r="1.38"/><circle class="cls-1" cx="823.24" cy="147.21" r="1.38"/><circle class="cls-1" cx="830.45" cy="140.1" r="1.38"/><circle class="cls-1" cx="830.45" cy="147.21" r="1.38"/><circle class="cls-1" cx="837.75" cy="140.1" r="1.38"/><circle class="cls-1" cx="837.75" cy="147.21" r="1.38"/><circle class="cls-1" cx="844.88" cy="140.1" r="1.38"/><circle class="cls-1" cx="844.88" cy="147.21" r="1.38"/><circle class="cls-1" cx="852.18" cy="140.1" r="1.38"/><circle class="cls-1" cx="852.18" cy="147.21" r="1.38"/><circle class="cls-1" cx="859.39" cy="140.1" r="1.38"/><circle class="cls-1" cx="859.39" cy="147.21" r="1.38"/><circle class="cls-1" cx="866.69" cy="140.1" r="1.38"/><circle class="cls-1" cx="866.69" cy="147.21" r="1.38"/><circle class="cls-1" cx="873.99" cy="140.1" r="1.38"/><circle class="cls-1" cx="873.99" cy="147.21" r="1.38"/><circle class="cls-1" cx="881.29" cy="140.1" r="1.38"/><circle class="cls-1" cx="881.29" cy="147.21" r="1.38"/><circle class="cls-1" cx="888.5" cy="140.1" r="1.38"/><circle class="cls-1" cx="888.5" cy="147.21" r="1.38"/><circle class="cls-1" cx="895.8" cy="140.1" r="1.38"/><circle class="cls-1" cx="895.8" cy="147.21" r="1.38"/><circle class="cls-1" cx="902.93" cy="140.1" r="1.38"/><circle class="cls-1" cx="902.93" cy="147.21" r="1.38"/><circle class="cls-1" cx="910.23" cy="140.1" r="1.38"/><circle class="cls-1" cx="910.23" cy="147.21" r="1.38"/><circle class="cls-1" cx="917.44" cy="140.1" r="1.38"/><circle class="cls-1" cx="917.44" cy="147.21" r="1.38"/><circle class="cls-1" cx="924.74" cy="140.1" r="1.38"/><circle class="cls-1" cx="924.74" cy="147.21" r="1.38"/><circle class="cls-1" cx="931.66" cy="140.1" r="1.38"/><circle class="cls-1" cx="931.66" cy="147.21" r="1.38"/><circle class="cls-1" cx="938.96" cy="140.1" r="1.38"/><circle class="cls-1" cx="938.96" cy="147.21" r="1.38"/><circle class="cls-1" cx="946.17" cy="140.1" r="1.38"/><circle class="cls-1" cx="946.17" cy="147.21" r="1.38"/><circle class="cls-1" cx="953.47" cy="140.1" r="1.38"/><circle class="cls-1" cx="953.47" cy="147.21" r="1.38"/><rect class="cls-1" x="99.24" y="371.46" width="14.5" height="144.63" transform="translate(-336.79 540.78) rotate(-90)"/><circle class="cls-1" cx="38.37" cy="431.01" r="1.38"/><circle class="cls-1" cx="38.37" cy="438.12" r="1.38"/><circle class="cls-1" cx="45.67" cy="431.01" r="1.38"/><circle class="cls-1" cx="45.67" cy="438.12" r="1.38"/><circle class="cls-1" cx="52.89" cy="431.01" r="1.38"/><circle class="cls-1" cx="52.89" cy="438.12" r="1.38"/><circle class="cls-1" cx="60.18" cy="431.01" r="1.38"/><circle class="cls-1" cx="60.18" cy="438.12" r="1.38"/><circle class="cls-1" cx="67.32" cy="431.01" r="1.38"/><circle class="cls-1" cx="67.32" cy="438.12" r="1.38"/><circle class="cls-1" cx="74.61" cy="431.01" r="1.38"/><circle class="cls-1" cx="74.61" cy="438.12" r="1.38"/><circle class="cls-1" cx="81.83" cy="431.01" r="1.38"/><circle class="cls-1" cx="81.83" cy="438.12" r="1.38"/><circle class="cls-1" cx="89.13" cy="431.01" r="1.38"/><circle class="cls-1" cx="89.13" cy="438.12" r="1.38"/><circle class="cls-1" cx="96.42" cy="431.01" r="1.38"/><circle class="cls-1" cx="96.42" cy="438.12" r="1.38"/><circle class="cls-1" cx="103.72" cy="431.01" r="1.38"/><circle class="cls-1" cx="103.72" cy="438.12" r="1.38"/><circle class="cls-1" cx="110.94" cy="431.01" r="1.38"/><circle class="cls-1" cx="110.94" cy="438.12" r="1.38"/><circle class="cls-1" cx="118.23" cy="431.01" r="1.38"/><circle class="cls-1" cx="118.23" cy="438.12" r="1.38"/><circle class="cls-1" cx="125.36" cy="431.01" r="1.38"/><circle class="cls-1" cx="125.36" cy="438.12" r="1.38"/><circle class="cls-1" cx="132.66" cy="431.01" r="1.38"/><circle class="cls-1" cx="132.66" cy="438.12" r="1.38"/><circle class="cls-1" cx="139.88" cy="431.01" r="1.38"/><circle class="cls-1" cx="139.88" cy="438.12" r="1.38"/><circle class="cls-1" cx="147.17" cy="431.01" r="1.38"/><circle class="cls-1" cx="147.17" cy="438.12" r="1.38"/><circle class="cls-1" cx="154.1" cy="431.01" r="1.38"/><circle class="cls-1" cx="154.1" cy="438.12" r="1.38"/><circle class="cls-1" cx="161.39" cy="431.01" r="1.38"/><circle class="cls-1" cx="161.39" cy="438.12" r="1.38"/><circle class="cls-1" cx="168.61" cy="431.01" r="1.38"/><circle class="cls-1" cx="168.61" cy="438.12" r="1.38"/><circle class="cls-1" cx="175.91" cy="431.01" r="1.38"/><circle class="cls-1" cx="175.91" cy="438.12" r="1.38"/><circle class="cls-1" cx="884.47" cy="407.08" r="24.46"/><circle class="cls-1" cx="884.39" cy="349.33" r="2.52"/><circle class="cls-1" cx="836.03" cy="434" r="2.52"/><circle class="cls-1" cx="978.69" cy="291.81" r="6.15"/><circle class="cls-1" cx="982.45" cy="459.79" r="6.15"/><circle class="cls-1" cx="884.67" cy="275.92" r="6.15"/><circle class="cls-1" cx="791.68" cy="291.95" r="6.15"/><circle class="cls-1" cx="787.34" cy="460.49" r="6.15"/><polygon class="cls-1" points="777.07 468.48 777.07 267.48 835.19 267.48 835.19 257.98 933.65 257.98 933.65 266.86 991.32 266.86 991.32 284.61 993.69 284.61 993.69 377.98 985.74 377.98 985.74 444.73 991.82 444.73 991.82 474.36 893.9 474.36 893.9 466.67 875.65 466.67 875.65 474.36 777.07 474.36 777.07 468.48"/><polyline class="cls-1" points="875.65 474.36 875.65 466.67 893.9 466.67 893.9 474.36"/><circle class="cls-1" cx="781.78" cy="276.16" r="1.39"/><circle class="cls-1" cx="786.47" cy="281.22" r="1.39"/><circle class="cls-1" cx="799.22" cy="281.22" r="1.39"/><circle class="cls-1" cx="803.43" cy="276.16" r="1.39"/><circle class="cls-1" cx="888.85" cy="378.42" r="1.39"/><circle class="cls-1" cx="879.12" cy="378.42" r="1.39"/><circle class="cls-1" cx="966.2" cy="276.16" r="1.39"/><circle class="cls-1" cx="970.89" cy="281.22" r="1.39"/><circle class="cls-1" cx="983.64" cy="281.22" r="1.39"/><circle class="cls-1" cx="987.85" cy="276.16" r="1.39"/><circle class="cls-1" cx="803.95" cy="464.35" r="3.98"/><circle class="cls-1" cx="968.69" cy="464.43" r="3.87"/><rect class="cls-1" x="878.47" y="336.09" width="14.5" height="144.63" transform="translate(477.81 1284.63) rotate(-90)"/><circle class="cls-1" cx="954.82" cy="395.64" r="1.38"/><circle class="cls-1" cx="954.82" cy="402.75" r="1.38"/><circle class="cls-1" cx="947.53" cy="395.64" r="1.38"/><circle class="cls-1" cx="947.53" cy="402.75" r="1.38"/><circle class="cls-1" cx="940.31" cy="395.64" r="1.38"/><circle class="cls-1" cx="940.31" cy="402.75" r="1.38"/><circle class="cls-1" cx="933.01" cy="395.64" r="1.38"/><circle class="cls-1" cx="933.01" cy="402.75" r="1.38"/><circle class="cls-1" cx="925.88" cy="395.64" r="1.38"/><circle class="cls-1" cx="925.88" cy="402.75" r="1.38"/><circle class="cls-1" cx="918.59" cy="395.64" r="1.38"/><circle class="cls-1" cx="918.59" cy="402.75" r="1.38"/><circle class="cls-1" cx="911.37" cy="395.64" r="1.38"/><circle class="cls-1" cx="911.37" cy="402.75" r="1.38"/><circle class="cls-1" cx="904.07" cy="395.64" r="1.38"/><circle class="cls-1" cx="904.07" cy="402.75" r="1.38"/><circle class="cls-1" cx="896.78" cy="395.64" r="1.38"/><circle class="cls-1" cx="896.78" cy="402.75" r="1.38"/><circle class="cls-1" cx="889.48" cy="395.64" r="1.38"/><circle class="cls-1" cx="889.48" cy="402.75" r="1.38"/><circle class="cls-1" cx="882.26" cy="395.64" r="1.38"/><circle class="cls-1" cx="882.26" cy="402.75" r="1.38"/><circle class="cls-1" cx="874.97" cy="395.64" r="1.38"/><circle class="cls-1" cx="874.97" cy="402.75" r="1.38"/><circle class="cls-1" cx="867.83" cy="395.64" r="1.38"/><circle class="cls-1" cx="867.83" cy="402.75" r="1.38"/><circle class="cls-1" cx="860.54" cy="395.64" r="1.38"/><circle class="cls-1" cx="860.54" cy="402.75" r="1.38"/><circle class="cls-1" cx="853.32" cy="395.64" r="1.38"/><circle class="cls-1" cx="853.32" cy="402.75" r="1.38"/><circle class="cls-1" cx="846.02" cy="395.64" r="1.38"/><circle class="cls-1" cx="846.02" cy="402.75" r="1.38"/><circle class="cls-1" cx="839.1" cy="395.64" r="1.38"/><circle class="cls-1" cx="839.1" cy="402.75" r="1.38"/><circle class="cls-1" cx="831.81" cy="395.64" r="1.38"/><circle class="cls-1" cx="831.81" cy="402.75" r="1.38"/><circle class="cls-1" cx="824.59" cy="395.64" r="1.38"/><circle class="cls-1" cx="824.59" cy="402.75" r="1.38"/><circle class="cls-1" cx="817.29" cy="395.64" r="1.38"/><circle class="cls-1" cx="817.29" cy="402.75" r="1.38"/><text class="cls-2" transform="translate(48.88 534.83)"><tspan class="cls-3">T</tspan><tspan x="5.11" y="0">op u</tspan><tspan class="cls-4" x="27.68" y="0">p</tspan><tspan x="34.22" y="0">, both sides</tspan></text><text class="cls-2" transform="translate(583.08 229.51)"><tspan class="cls-3">T</tspan><tspan x="5.11" y="0">op u</tspan><tspan class="cls-4" x="27.68" y="0">p</tspan><tspan x="34.22" y="0">, </tspan><tspan class="cls-5" x="39.25" y="0">t</tspan><tspan x="43.15" y="0">op side</tspan></text><text class="cls-2" transform="translate(836.08 229.51)">Back u<tspan class="cls-6" x="32.45" y="0">p</tspan><tspan x="38.99" y="0">, back side</tspan></text><text class="cls-2" transform="translate(836.08 500.51)"><tspan class="cls-3">T</tspan><tspan x="5.11" y="0">op u</tspan><tspan class="cls-4" x="27.68" y="0">p</tspan><tspan x="34.22" y="0">, back side</tspan></text><text class="cls-7" transform="translate(5.06 488.8)">(3.62mm, 4.89mm)</text><text class="cls-7" transform="translate(5.06 486.3)">d = 4.336mm</text><text class="cls-7" transform="translate(195.99 488.13)">(3.62mm, 4.89mm)</text><text class="cls-7" transform="translate(195.99 485.64)">d = 4.336mm</text><text class="cls-7" transform="translate(23.4 494.53)">(9.48mm, 3.53mm)</text><text class="cls-7" transform="translate(23.4 492.03)">d = 2.811mm</text><text class="cls-7" transform="translate(37 428.95)">(13.361mm, 27.693mm)</text><text class="cls-7" transform="translate(106.98 434.29)">(37.565mm, 26.538mm)</text><text class="cls-7" transform="translate(146.75 420.29)">(55.18mm, 28.083mm)</text><text class="cls-7" transform="translate(136.75 385.3)">(51.653mm, 40.246mm)</text><text class="cls-7" transform="translate(173.5 374.97)">(64.617mm, 43.818mm)</text><text class="cls-7" transform="translate(183.67 408.8)">(68.154mm, 31.654mm)</text><text class="cls-7" transform="translate(111.3 412.4)">(39.579mm, 33.768mm)</text><text class="cls-7" transform="translate(111.3 410.65)">d=.981mm</text><text class="cls-7" transform="translate(105.71 381.34)">(38.006mm, 44.03mm)</text><text class="cls-7" transform="translate(40.54 361.97)">(17.712mm, 48.448mm)</text><text class="cls-7" transform="translate(101.12 331.47)">(37.96mm, 59.877mm)</text><text class="cls-7" transform="translate(189.63 309.92)">(70.567mm, 69.027mm)</text><text class="cls-7" transform="translate(61.37 381.59)">(24.533mm, 41.687mm)</text><text class="cls-7" transform="translate(19.06 381.59)">(10.787mm, 41.687mm)</text><text class="cls-7" transform="translate(105.71 379.59)">d=1.781mm</text><text class="cls-7" transform="translate(101.96 303.84)">(37.96mm, 70.005mm)</text><text class="cls-7" transform="translate(101.96 302.09)">d=4.336mm</text><text class="cls-7" transform="translate(8.96 336.84)">(5.154mm, 64.35mm)</text><text class="cls-7" transform="translate(5.06 308.97)">(5.453mm, 69.027mm)</text><text class="cls-7" transform="translate(8.96 335.09)">d=4.336mm</text><text class="cls-7" transform="translate(195.99 336.84)">(71.127mm, 64.4mm)</text><text class="cls-7" transform="translate(195.99 335.09)">d=4.336mm</text><text class="cls-7" transform="translate(101.57 418.87)">(36.148mm, 33.768mm)</text><text class="cls-7" transform="translate(101.57 417.12)">d=.981mm</text><text class="cls-7" transform="translate(37 426.7)">2.54mm pp</text><text class="cls-7" transform="translate(189.35 508.16)">(67.60mm, 3.5mm)</text><text class="cls-7" transform="translate(189.35 505.67)">d = 2.811mm</text><text class="cls-7" transform="translate(81.21 485.19)">(30.93mm, 5.73mm)</text><text class="cls-7" transform="translate(81.21 482.7)"><tspan class="cls-8">l</tspan><tspan x="0.48" y="0">,w = 4.924mm</tspan></text><text class="cls-7" transform="translate(121.21 485.19)">(45.05mm, 5.73mm)</text><text class="cls-7" transform="translate(121.21 482.7)"><tspan class="cls-8">l</tspan><tspan x="0.48" y="0">,w = 4.924mm</tspan></text><line class="cls-9" x1="38.37" y1="429.63" x2="38.37" y2="432.38"/><line class="cls-9" x1="37" y1="431.01" x2="39.75" y2="431.01"/><text class="cls-7" transform="translate(61.37 419.84)">(17.712mm, 34.866mm)</text><rect class="cls-10" x="5.06" y="311.31" width="21.8" height="5.06"/><rect class="cls-10" x="189.63" y="311.31" width="21.8" height="5.06"/></svg>